<svg width="66" height="63" viewBox="0 0 66 63" fill="none" xmlns="http://www.w3.org/2000/svg">
<path d="M7.31445 60.3535C1.39423 56.4038 -0.278665 46.2332 1.83777 38.1941C3.9542 30.155 9.87442 24.233 15.7946 17.631C21.7149 11.029 27.6351 3.73259 36.1779 1.10915C44.7208 -1.51428 55.8815 0.525632 61.1557 7.12762C66.4154 13.7441 65.7646 24.913 63.5228 33.8201C61.2665 42.7417 57.3953 49.4064 52.1403 53.356C46.8854 57.3057 40.2179 58.5354 31.8053 60.2908C23.407 62.0413 13.2347 64.3031 7.31445 60.3535Z" fill="#89DDC4"/>
<path d="M38.0902 39.487L32.9883 36.3613L27.8863 39.487C27.815 39.5295 27.735 39.5482 27.6552 39.541C27.5753 39.5337 27.4988 39.5008 27.4341 39.4459C27.3693 39.3911 27.3189 39.3164 27.2885 39.2302C27.258 39.1439 27.2487 39.0496 27.2616 38.9576L28.2589 32.3426L24.127 27.6605C24.0703 27.5946 24.0304 27.5117 24.0118 27.421C23.9932 27.3303 23.9966 27.2353 24.0216 27.1467C24.0466 27.0582 24.0922 26.9794 24.1534 26.9192C24.2146 26.8589 24.2889 26.8197 24.3681 26.8057L30.0729 25.8425L32.6211 19.8272C32.6557 19.742 32.7104 19.67 32.7788 19.6196C32.8472 19.5692 32.9265 19.5425 33.0074 19.5425C33.0884 19.5425 33.1677 19.5692 33.2361 19.6196C33.3045 19.67 33.3592 19.742 33.3938 19.8272L35.9311 25.8425L41.6304 26.8057C41.7103 26.8184 41.7855 26.8572 41.8473 26.9175C41.909 26.9778 41.9549 27.0573 41.9796 27.1467C42.0042 27.2361 42.0066 27.3317 41.9865 27.4227C41.9664 27.5136 41.9246 27.596 41.866 27.6605L37.7395 32.3426L38.7149 38.9576C38.7278 39.0496 38.7185 39.1439 38.6881 39.2302C38.6576 39.3164 38.6072 39.3911 38.5425 39.4459C38.4777 39.5008 38.4012 39.5337 38.3213 39.541C38.2415 39.5482 38.1615 39.5295 38.0902 39.487V39.487ZM28.9111 29.0064L30.9497 31.3156L30.451 34.5816L32.9883 33.0443L35.5036 34.5816L35.0268 31.3156L37.0654 29.0064L34.2487 28.528L32.9883 25.5554L31.7278 28.528L28.9111 29.0064Z" fill="#12263F"/>
<path d="M52.9056 43.3926L46.9261 37.2733C47.9303 34.9091 48.3438 32.3264 48.1295 29.7578C47.9152 27.1893 47.0797 24.7157 45.6984 22.5599C44.3171 20.4041 42.4334 18.634 40.2169 17.4089C38.0005 16.1839 35.5211 15.5425 33.0021 15.5425C30.4831 15.5425 28.0036 16.1839 25.7872 17.4089C23.5708 18.634 21.6871 20.4041 20.3058 22.5599C18.9245 24.7157 18.089 27.1893 17.8747 29.7578C17.6604 32.3264 18.0739 34.9091 19.078 37.2733L13.0985 43.3926C13.0543 43.4473 13.0237 43.5121 13.0094 43.5815C12.995 43.6509 12.9972 43.7229 13.0159 43.7912C13.0346 43.8595 13.0692 43.9222 13.1167 43.9739C13.1642 44.0256 13.2233 44.0647 13.2888 44.088L18.8552 45.5176L20.2522 51.2141C20.2705 51.2887 20.3078 51.3569 20.3603 51.4119C20.4128 51.4669 20.4787 51.5066 20.5511 51.527C20.6236 51.5473 20.7 51.5477 20.7726 51.5279C20.8452 51.5081 20.9113 51.4689 20.9643 51.4143L26.9438 45.2951C28.8514 46.1465 30.9101 46.5859 32.9912 46.5859C35.0723 46.5859 37.131 46.1465 39.0386 45.2951L45.0181 51.4143C45.0711 51.4689 45.1372 51.5081 45.2098 51.5279C45.2824 51.5477 45.3589 51.5473 45.4313 51.527C45.5038 51.5066 45.5696 51.4669 45.6221 51.4119C45.6747 51.3569 45.712 51.2887 45.7302 51.2141L47.1273 45.5121L52.6936 44.0824C52.7608 44.0625 52.8222 44.026 52.8723 43.9759C52.9223 43.9259 52.9595 43.864 52.9805 43.7957C53.0015 43.7274 53.0056 43.6548 52.9925 43.5845C52.9795 43.5142 52.9496 43.4482 52.9056 43.3926V43.3926ZM21.9591 46.3131L21.2252 43.3981C21.2055 43.3205 21.1659 43.2497 21.1104 43.193C21.055 43.1362 20.9858 43.0957 20.9099 43.0755L18.0615 42.3412L20.4642 39.8768C21.5136 41.4292 22.8285 42.7748 24.3454 43.8487L21.9591 46.3131ZM20.6218 31.0651C20.6208 28.5629 21.3448 26.1166 22.7024 24.0355C24.06 21.9545 25.9902 20.3322 28.2489 19.3739C30.5075 18.4156 32.9931 18.1643 35.3913 18.6518C37.7895 19.1393 39.9925 20.3436 41.7218 22.1126C43.4511 23.8815 44.629 26.1355 45.1064 28.5896C45.5838 31.0436 45.3393 33.5874 44.4039 35.8992C43.4684 38.2111 41.8841 40.1871 39.8512 41.5774C37.8182 42.9676 35.4281 43.7097 32.9831 43.7097C29.7065 43.7067 26.5648 42.3738 24.2474 40.0032C21.93 37.6327 20.6261 34.4183 20.6218 31.0651V31.0651ZM45.0834 43.1089C45.0095 43.1271 44.9421 43.1659 44.8884 43.2208C44.8347 43.2758 44.7968 43.3449 44.779 43.4204L44.056 46.3465L41.6153 43.8487C43.1322 42.7748 44.4471 41.4292 45.4965 39.8768L47.9318 42.3746L45.0834 43.1089Z" fill="#12263F"/>
</svg>
